<mxfile host="65bd71144e">
    <diagram name="Page-1" id="12e1b939-464a-85fe-373e-61e167be1490">
        <mxGraphModel dx="2131" dy="1463" grid="1" gridSize="10" guides="1" tooltips="1" connect="1" arrows="1" fold="1" page="1" pageScale="1.5" pageWidth="1169" pageHeight="826" background="none" math="0" shadow="0">
            <root>
                <mxCell id="0"/>
                <mxCell id="1" parent="0"/>
                <mxCell id="R4HIpIpI7W8JvGsZGUoP-13" style="edgeStyle=none;curved=1;rounded=0;orthogonalLoop=1;jettySize=auto;html=1;fontSize=12;startSize=8;endSize=8;strokeWidth=10;entryX=0;entryY=0.5;entryDx=0;entryDy=0;" parent="1" source="R4HIpIpI7W8JvGsZGUoP-8" target="R4HIpIpI7W8JvGsZGUoP-15" edge="1">
                    <mxGeometry relative="1" as="geometry">
                        <mxPoint x="810" y="630" as="targetPoint"/>
                        <Array as="points">
                            <mxPoint x="800" y="630"/>
                        </Array>
                    </mxGeometry>
                </mxCell>
                <mxCell id="R4HIpIpI7W8JvGsZGUoP-8" value="" style="rounded=1;whiteSpace=wrap;html=1;fontSize=16;" parent="1" vertex="1">
                    <mxGeometry x="160" y="470" width="360" height="320" as="geometry"/>
                </mxCell>
                <mxCell id="R4HIpIpI7W8JvGsZGUoP-9" value="&lt;font style=&quot;font-size: 30px;&quot;&gt;INITIAL IMPROVE&lt;/font&gt;" style="text;html=1;strokeColor=none;fillColor=none;align=center;verticalAlign=middle;whiteSpace=wrap;rounded=0;fontSize=16;" parent="1" vertex="1">
                    <mxGeometry x="215" y="490" width="250" height="50" as="geometry"/>
                </mxCell>
                <mxCell id="R4HIpIpI7W8JvGsZGUoP-11" value="&lt;span style=&quot;font-size: 25px;&quot;&gt;Rquisitante criará uma improve inicial na ferramenta&lt;/span&gt;" style="text;html=1;strokeColor=none;fillColor=none;align=center;verticalAlign=middle;whiteSpace=wrap;rounded=0;fontSize=16;" parent="1" vertex="1">
                    <mxGeometry x="215" y="560" width="255" height="160" as="geometry"/>
                </mxCell>
                <mxCell id="R4HIpIpI7W8JvGsZGUoP-14" style="edgeStyle=none;curved=1;rounded=0;orthogonalLoop=1;jettySize=auto;html=1;fontSize=12;startSize=8;endSize=8;strokeWidth=10;entryX=0;entryY=0.5;entryDx=0;entryDy=0;" parent="1" source="R4HIpIpI7W8JvGsZGUoP-15" target="R4HIpIpI7W8JvGsZGUoP-20" edge="1">
                    <mxGeometry relative="1" as="geometry">
                        <mxPoint x="1470" y="630" as="targetPoint"/>
                    </mxGeometry>
                </mxCell>
                <mxCell id="R4HIpIpI7W8JvGsZGUoP-15" value="" style="rounded=1;whiteSpace=wrap;html=1;fontSize=16;" parent="1" vertex="1">
                    <mxGeometry x="820" y="470" width="360" height="320" as="geometry"/>
                </mxCell>
                <mxCell id="R4HIpIpI7W8JvGsZGUoP-18" value="&lt;span style=&quot;font-size: 30px;&quot;&gt;AVALIAÇÃO&lt;/span&gt;" style="text;html=1;strokeColor=none;fillColor=none;align=center;verticalAlign=middle;whiteSpace=wrap;rounded=0;fontSize=16;" parent="1" vertex="1">
                    <mxGeometry x="870" y="490" width="280" height="60" as="geometry"/>
                </mxCell>
                <mxCell id="R4HIpIpI7W8JvGsZGUoP-19" value="&lt;span style=&quot;font-size: 25px;&quot;&gt;O gestor do centro de custo analisará se a improve está apta a ser aprovada.&lt;br&gt;&lt;br&gt;Podendo aprovar ou reprovar a improve na ferramenta&lt;br&gt;&lt;br&gt;&lt;/span&gt;" style="text;html=1;strokeColor=none;fillColor=none;align=left;verticalAlign=middle;whiteSpace=wrap;rounded=0;fontSize=16;" parent="1" vertex="1">
                    <mxGeometry x="840" y="550" width="320" height="230" as="geometry"/>
                </mxCell>
                <mxCell id="R4HIpIpI7W8JvGsZGUoP-20" value="" style="rounded=1;whiteSpace=wrap;html=1;fontSize=16;" parent="1" vertex="1">
                    <mxGeometry x="1480" y="470" width="360" height="320" as="geometry"/>
                </mxCell>
                <mxCell id="R4HIpIpI7W8JvGsZGUoP-21" value="&lt;span style=&quot;font-size: 30px;&quot;&gt;FINAL IMPROVE&lt;/span&gt;" style="text;html=1;strokeColor=none;fillColor=none;align=center;verticalAlign=middle;whiteSpace=wrap;rounded=0;fontSize=16;" parent="1" vertex="1">
                    <mxGeometry x="1530" y="490" width="280" height="60" as="geometry"/>
                </mxCell>
                <mxCell id="R4HIpIpI7W8JvGsZGUoP-22" value="&lt;span style=&quot;font-size: 25px;&quot;&gt;Uma vez aprovada, a ferramenta criará a improve no Jira.&lt;br&gt;&lt;/span&gt;" style="text;html=1;strokeColor=none;fillColor=none;align=left;verticalAlign=middle;whiteSpace=wrap;rounded=0;fontSize=16;" parent="1" vertex="1">
                    <mxGeometry x="1500" y="555" width="320" height="170" as="geometry"/>
                </mxCell>
                <mxCell id="R4HIpIpI7W8JvGsZGUoP-23" value="&lt;span style=&quot;font-size: 25px;&quot;&gt;Aprovada&lt;/span&gt;" style="text;html=1;strokeColor=none;fillColor=none;align=center;verticalAlign=middle;whiteSpace=wrap;rounded=0;fontSize=16;" parent="1" vertex="1">
                    <mxGeometry x="1220" y="570" width="210" height="30" as="geometry"/>
                </mxCell>
                <mxCell id="R4HIpIpI7W8JvGsZGUoP-24" value="" style="rounded=1;whiteSpace=wrap;html=1;fontSize=16;" parent="1" vertex="1">
                    <mxGeometry x="820" y="1040" width="360" height="320" as="geometry"/>
                </mxCell>
                <mxCell id="R4HIpIpI7W8JvGsZGUoP-27" style="edgeStyle=none;curved=1;rounded=0;orthogonalLoop=1;jettySize=auto;html=1;fontSize=12;startSize=8;endSize=8;strokeWidth=10;entryX=0.5;entryY=0;entryDx=0;entryDy=0;exitX=0.5;exitY=1;exitDx=0;exitDy=0;" parent="1" source="R4HIpIpI7W8JvGsZGUoP-15" target="R4HIpIpI7W8JvGsZGUoP-24" edge="1">
                    <mxGeometry relative="1" as="geometry">
                        <mxPoint x="1320" y="920" as="targetPoint"/>
                        <mxPoint x="1020" y="920" as="sourcePoint"/>
                    </mxGeometry>
                </mxCell>
                <mxCell id="R4HIpIpI7W8JvGsZGUoP-28" value="&lt;span style=&quot;font-size: 25px;&quot;&gt;Reprovada&lt;br&gt;&lt;br&gt;&lt;/span&gt;" style="text;html=1;strokeColor=none;fillColor=none;align=center;verticalAlign=middle;whiteSpace=wrap;rounded=0;fontSize=16;rotation=-90;" parent="1" vertex="1">
                    <mxGeometry x="850" y="890" width="210" height="30" as="geometry"/>
                </mxCell>
                <mxCell id="R4HIpIpI7W8JvGsZGUoP-31" value="Gestor" style="swimlane;fontStyle=0;childLayout=stackLayout;horizontal=1;startSize=30;horizontalStack=0;resizeParent=1;resizeParentMax=0;resizeLast=0;collapsible=1;marginBottom=0;whiteSpace=wrap;html=1;fontSize=16;" parent="1" vertex="1">
                    <mxGeometry x="560" y="2000" width="140" height="120" as="geometry"/>
                </mxCell>
                <mxCell id="R4HIpIpI7W8JvGsZGUoP-32" value="Name" style="text;strokeColor=none;fillColor=none;align=left;verticalAlign=middle;spacingLeft=4;spacingRight=4;overflow=hidden;points=[[0,0.5],[1,0.5]];portConstraint=eastwest;rotatable=0;whiteSpace=wrap;html=1;fontSize=16;" parent="R4HIpIpI7W8JvGsZGUoP-31" vertex="1">
                    <mxGeometry y="30" width="140" height="30" as="geometry"/>
                </mxCell>
                <mxCell id="R4HIpIpI7W8JvGsZGUoP-33" value="Email" style="text;strokeColor=none;fillColor=none;align=left;verticalAlign=middle;spacingLeft=4;spacingRight=4;overflow=hidden;points=[[0,0.5],[1,0.5]];portConstraint=eastwest;rotatable=0;whiteSpace=wrap;html=1;fontSize=16;" parent="R4HIpIpI7W8JvGsZGUoP-31" vertex="1">
                    <mxGeometry y="60" width="140" height="30" as="geometry"/>
                </mxCell>
                <mxCell id="R4HIpIpI7W8JvGsZGUoP-34" value="Department" style="text;strokeColor=none;fillColor=none;align=left;verticalAlign=middle;spacingLeft=4;spacingRight=4;overflow=hidden;points=[[0,0.5],[1,0.5]];portConstraint=eastwest;rotatable=0;whiteSpace=wrap;html=1;fontSize=16;" parent="R4HIpIpI7W8JvGsZGUoP-31" vertex="1">
                    <mxGeometry y="90" width="140" height="30" as="geometry"/>
                </mxCell>
                <mxCell id="R4HIpIpI7W8JvGsZGUoP-35" value="Department" style="swimlane;fontStyle=0;childLayout=stackLayout;horizontal=1;startSize=30;horizontalStack=0;resizeParent=1;resizeParentMax=0;resizeLast=0;collapsible=1;marginBottom=0;whiteSpace=wrap;html=1;fontSize=16;" parent="1" vertex="1">
                    <mxGeometry x="920" y="1980" width="140" height="60" as="geometry"/>
                </mxCell>
                <mxCell id="R4HIpIpI7W8JvGsZGUoP-36" value="name" style="text;strokeColor=none;fillColor=none;align=left;verticalAlign=middle;spacingLeft=4;spacingRight=4;overflow=hidden;points=[[0,0.5],[1,0.5]];portConstraint=eastwest;rotatable=0;whiteSpace=wrap;html=1;fontSize=16;" parent="R4HIpIpI7W8JvGsZGUoP-35" vertex="1">
                    <mxGeometry y="30" width="140" height="30" as="geometry"/>
                </mxCell>
                <mxCell id="R4HIpIpI7W8JvGsZGUoP-39" value="Cost center" style="swimlane;fontStyle=0;childLayout=stackLayout;horizontal=1;startSize=30;horizontalStack=0;resizeParent=1;resizeParentMax=0;resizeLast=0;collapsible=1;marginBottom=0;whiteSpace=wrap;html=1;fontSize=16;" parent="1" vertex="1">
                    <mxGeometry x="1010" y="2190" width="140" height="120" as="geometry"/>
                </mxCell>
                <mxCell id="R4HIpIpI7W8JvGsZGUoP-43" style="edgeStyle=none;curved=1;rounded=0;orthogonalLoop=1;jettySize=auto;html=1;fontSize=12;startSize=8;endSize=8;" parent="R4HIpIpI7W8JvGsZGUoP-39" source="R4HIpIpI7W8JvGsZGUoP-40" target="R4HIpIpI7W8JvGsZGUoP-41" edge="1">
                    <mxGeometry relative="1" as="geometry"/>
                </mxCell>
                <mxCell id="R4HIpIpI7W8JvGsZGUoP-40" value="number" style="text;strokeColor=none;fillColor=none;align=left;verticalAlign=middle;spacingLeft=4;spacingRight=4;overflow=hidden;points=[[0,0.5],[1,0.5]];portConstraint=eastwest;rotatable=0;whiteSpace=wrap;html=1;fontSize=16;" parent="R4HIpIpI7W8JvGsZGUoP-39" vertex="1">
                    <mxGeometry y="30" width="140" height="30" as="geometry"/>
                </mxCell>
                <mxCell id="R4HIpIpI7W8JvGsZGUoP-41" value="Item 2" style="text;strokeColor=none;fillColor=none;align=left;verticalAlign=middle;spacingLeft=4;spacingRight=4;overflow=hidden;points=[[0,0.5],[1,0.5]];portConstraint=eastwest;rotatable=0;whiteSpace=wrap;html=1;fontSize=16;" parent="R4HIpIpI7W8JvGsZGUoP-39" vertex="1">
                    <mxGeometry y="60" width="140" height="30" as="geometry"/>
                </mxCell>
                <mxCell id="R4HIpIpI7W8JvGsZGUoP-42" value="Item 3" style="text;strokeColor=none;fillColor=none;align=left;verticalAlign=middle;spacingLeft=4;spacingRight=4;overflow=hidden;points=[[0,0.5],[1,0.5]];portConstraint=eastwest;rotatable=0;whiteSpace=wrap;html=1;fontSize=16;" parent="R4HIpIpI7W8JvGsZGUoP-39" vertex="1">
                    <mxGeometry y="90" width="140" height="30" as="geometry"/>
                </mxCell>
                <mxCell id="R4HIpIpI7W8JvGsZGUoP-44" style="edgeStyle=none;curved=1;rounded=0;orthogonalLoop=1;jettySize=auto;html=1;fontSize=12;startSize=8;endSize=8;" parent="1" source="R4HIpIpI7W8JvGsZGUoP-36" target="R4HIpIpI7W8JvGsZGUoP-34" edge="1">
                    <mxGeometry relative="1" as="geometry"/>
                </mxCell>
            </root>
        </mxGraphModel>
    </diagram>
</mxfile>